#format: frame checksums
#version: 1
#hash: MD5
#tb 0: 1/30
#stream#, dts,        pts, duration,     size, hash
0,          0,          0,        1,   115200, 6b4c7cc0c6a7218362e43cffef6618c9
0,          1,          1,        1,   115200, e132a7b1bb4fb15b1019092aedc0e599
0,          2,          2,        1,   115200, b36975db60f24088d95385ff7e8b7b8a
0,          3,          3,        1,   115200, 4ae6a13ae0435afb2eac66f15a07b143
0,          4,          4,        1,   115200, d1de33515e29053171c9fbe969a33fa1
0,          5,          5,        1,   115200, cf01450481865c10765995a3b92b440f
0,          6,          6,        1,   115200, 274461d33aeab30885b23bf2818ad150
0,          7,          7,        1,   115200, cb434c5a829b3d6d15a6e76f05abd51f
0,          8,          8,        1,   115200, 512019fa16b1cd6bf308c91d6577cf2a
0,          9,          9,        1,   115200, 2d1174741c144b2162806373d0092739
0,         10,         10,        1,   115200, 8ec38a17566342a35598bd5ab6d290d5
0,         11,         11,        1,   115200, 262b71c9874cc7a5138b12b294575572
0,         12,         12,        1,   115200, bfe5e37095dc450dc717fda5ef77b6fe
0,         13,         13,        1,   115200, 7fbcdb00872206a597bb69ebe9221b03
0,         14,         14,        1,   115200, b599ac8568b6780dec25de4211e071ef
0,         15,         15,        1,   115200, 797085b07f4c1e4f4b0116d329403cf8
0,         16,         16,        1,   115200, a0d0821365658bee14767698877cc066
0,         17,         17,        1,   115200, 286a917e787d474eb78b4797a0909a5e
0,         18,         18,        1,   115200, 3548a320f6954c40a00ddf2e4ee212bd
0,         19,         19,        1,   115200, 80af737ca733afa28fdae06421b3cf8d
0,         20,         20,        1,   115200, f31a2b62cb69bc680b314a033f91881b
0,         21,         21,        1,   115200, 02e4a780b3a0d83a8897988ef17b548c
0,         22,         22,        1,   115200, 844929e7492b389fc520c5f75d37aa77
0,         23,         23,        1,   115200, 558ac4c1c11da425baf832a73e1ac2da
0,         24,         24,        1,   115200, 41b21109a7aa5f163ac0967ecd11f792
0,         25,         25,        1,   115200, a2a050c04eaa97db43a5a0a96d20a143
0,         26,         26,        1,   115200, 18d1881d44ab9dc959c34d92c0cabd36
0,         27,         27,        1,   115200, 53618af318cd187b4fcd5a3c22d3ab79
0,         28,         28,        1,   115200, 8028e6a6a6dadc8331e39cff1ba2b899
0,         29,         29,        1,   115200, 2c32a58d68595ff4100cec4fc1637c55
0,         30,         30,        1,   115200, 8ecc02d32f36edd167cabe2a7bc66683
0,         31,         31,        1,   115200, 7caa9ce69ac9f71170a69fbcef4c4b34
0,         32,         32,        1,   115200, df06a6a8a81979c39f2c3546eb03a3c2
0,         33,         33,        1,   115200, 2bfd578fa08335e975d498e11eadc8bc
0,         34,         34,        1,   115200, 0d78c5656d56e423ff31cab09855a335
0,         35,         35,        1,   115200, 7152d9e35748a7ec2e8da37f0b943325
0,         36,         36,        1,   115200, eb9e0e5cba76f0819da6256136ffd4e3
0,         37,         37,        1,   115200, c4e5ef875132c06a80f0afb3ee894684
0,         38,         38,        1,   115200, d2feb49297dd2f0a532479341d607e64
0,         39,         39,        1,   115200, d092d165608f405161fbf73a19df26ca
0,         40,         40,        1,   115200, cb228940384c3021af42b0ab81c65d7a
0,         41,         41,        1,   115200, 426decfbf29a025a7a5e376951c34b83
0,         42,         42,        1,   115200, 42c25e24bfd048bde0f9105d934cb81e
0,         43,         43,        1,   115200, 4bf37f8ccb2c4f42fa64a52a4699883f
0,         44,         44,        1,   115200, 5a00d85407910d4170d11511f03cc3a7
0,         45,         45,        1,   115200, 032072b8713a2cd7434b5be706a8667d
0,         46,         46,        1,   115200, e729c561b318aa14d7dbf96299c4675d
0,         47,         47,        1,   115200, e7e1d71c1c59bb759c89f15c6e8970f0
0,         48,         48,        1,   115200, 9c04011f4d92257a6dc112c5acad0f59
0,         49,         49,        1,   115200, ca7c7cbf52dd7af9a62212f3a9bd1f74
0,         50,         50,        1,   115200, 3cc9c4d3857d692e0dbfee682d63d32c
0,         51,         51,        1,   115200, 1188fc9620cf0d23af21d8823c127b80
0,         52,         52,        1,   115200, c614690b8d4d3bea47f1b236ff32d1d8
0,         53,         53,        1,   115200, d6ccde3360e6a05b61013e85f96de9e9
0,         54,         54,        1,   115200, 7f11cacc42d14121aeab487975ec190b
0,         55,         55,        1,   115200, cdd8b538ff107f88c5f0dc7128bc331e
0,         56,         56,        1,   115200, f43a387e9bb2f4db387d3f44da16457b
0,         57,         57,        1,   115200, b7ba01b86fce2252105f99848e2ac95c
0,         58,         58,        1,   115200, 094200f775b6ced838d0c37e0d0b34e6
0,         59,         59,        1,   115200, b2d2fa96666b96b7cb624133cf404b09
0,         60,         60,        1,   115200, d935644161a2b06f0efc75dc6d0fcf46
0,         61,         61,        1,   115200, 2a3be6460f313d7fdd6f6f9c70092a50
0,         62,         62,        1,   115200, f8254b6469b807ce0e9a1ea4b98a59db
0,         63,         63,        1,   115200, 43639a3293ec640b203e0c8a97e6f45e
0,         64,         64,        1,   115200, 055762cccc279c8dd27450ec1d512d5f
0,         65,         65,        1,   115200, a90dac910f3cdd216293bebc46b36501
0,         66,         66,        1,   115200, 3531ef2a4a59271f89ca0972b65d06aa
0,         67,         67,        1,   115200, 1f87adde14795639105be714247d0bd0
0,         68,         68,        1,   115200, e991cdd7912266937ca6f0d59199645b
0,         69,         69,        1,   115200, 5b98019db0fca644da5ee73e0160c7c5
0,         70,         70,        1,   115200, 6276f3907e4bb87885d21e11150d044d
0,         71,         71,        1,   115200, 985785d7a788dcc07bd5fb72d3dc758e
0,         72,         72,        1,   115200, 3379548a573d068d47d5f54aaf79c8a9
0,         73,         73,        1,   115200, a2b36848e7d19383cfabf8bdcabd241a
0,         74,         74,        1,   115200, 0aeda76888a5a2426ae3b390e38aba52
0,         75,         75,        1,   115200, 2c652e7850ccc10cbc7a3266f1fb6c00
0,         76,         76,        1,   115200, 5dfc9e4dce69f1f644fad5b69c0b4008
0,         77,         77,        1,   115200, da775fc1469012a0c717ebe5dc940e26
0,         78,         78,        1,   115200, 6185a863f7d023ddb2b049e265aab1bb
0,         79,         79,        1,   115200, 7a56397397191ab1b7c93a4bdc9b57c1
0,         80,         80,        1,   115200, 3e95a3f2c2660dc28ec64efef29615f0
0,         81,         81,        1,   115200, b9ba03bd7c09224174368a60af389b9c
0,         82,         82,        1,   115200, bfd23a13e077843506a01e44adb27c04
0,         83,         83,        1,   115200, 9025dff58a57abcc25da69fd233e312a
0,         84,         84,        1,   115200, ba4b91b0fe4d36f77b62ec3fe7b10a96
0,         85,         85,        1,   115200, 7955419ff2bc42b703dfc976576a5bd4
0,         86,         86,        1,   115200, 36d6a723ebb35c45128bfa8a7bba0d49
0,         87,         87,        1,   115200, 77503cc79e3cb0fc74745bac967fee1d
0,         88,         88,        1,   115200, a05af40cb4fc009fe94be6dbf148b453
0,         89,         89,        1,   115200, 35bc39585679f7c07f1b196879719ce6
0,         90,         90,        1,   115200, 48831c2e2212134ab192a123e847c157
0,         91,         91,        1,   115200, c09c37f9fd929185452a8beb3c61b839
0,         92,         92,        1,   115200, c534a38d586f3cac998240a7013c636c
0,         93,         93,        1,   115200, b598c6999442cf0c53ed6a19d1215eb8
0,         94,         94,        1,   115200, c639685c8f4af3d006df1833950943aa
0,         95,         95,        1,   115200, 351e1c089ba5b9024de6e311c4a4afd3
0,         96,         96,        1,   115200, 67d8ea902179548d0b01544249b2411f
0,         97,         97,        1,   115200, 3717ddf0edbb2020a5b974678d358d25
0,         98,         98,        1,   115200, 85f7c6861241e3f43fc63c397c8c3c37
0,         99,         99,        1,   115200, c5b23b4d3d141d8cfbc5354ca1cfd34d
0,        100,        100,        1,   115200, c2e42fa6b11cdc3abcf3ee0c3f75a459
0,        101,        101,        1,   115200, 34df411aa928d5df3628644d9a38c768
0,        102,        102,        1,   115200, a768b448b6c894d9b927bc880249079a
0,        103,        103,        1,   115200, a2e9ad0d0ad733b8ccacf0379b05f6f9
0,        104,        104,        1,   115200, 4b485e9496ab4d417b8cffaf8754f5cb
0,        105,        105,        1,   115200, 47007fabfacd9e9c5a3997fb70d45895
0,        106,        106,        1,   115200, 4962433241c7509801b46bea70f38269
0,        107,        107,        1,   115200, 7b4593b45606650e78aec67722cfc2bf
0,        108,        108,        1,   115200, 882bcbf7d2c12e93df2fbebc6ac19dd8
0,        109,        109,        1,   115200, a2998a9c648817236bfffdae454f9fa1
0,        110,        110,        1,   115200, 56775760fa99e9a9b7293ddc78a44ece
0,        111,        111,        1,   115200, bb245d095424c28dd2ace22a5a511d6a
0,        112,        112,        1,   115200, 598c54d2b207190ed549dec7390a4190
0,        113,        113,        1,   115200, c73f16b2709527fce3d725ade5aab2fc
0,        114,        114,        1,   115200, 32dcad6eb17bee583884029fe18c07a7
0,        115,        115,        1,   115200, a1297c404a0d22e0e8e1e4ef67696606
0,        116,        116,        1,   115200, 2fef1ac7becf9b8c9f3ac2310f444e3b
0,        117,        117,        1,   115200, 0f03614ed3daec6c37c5b564ad24f595
0,        118,        118,        1,   115200, 9b175a6353ec377da408b0cf03388081
0,        119,        119,        1,   115200, 37b991b4a216a4847d0768a3b878284a
0,        120,        120,        1,   115200, faafcd544080a6a4f87a0d0a393ba37b
0,        121,        121,        1,   115200, 43ede087f37c1b0392829bbc668242fc
0,        122,        122,        1,   115200, b7ed1274016c4d1810d8999d495b7370
0,        123,        123,        1,   115200, 22af7bfc83c6e1f2eff2ae26e115b446
0,        124,        124,        1,   115200, 969b22455f3be057036ddd5a329b1de3
0,        125,        125,        1,   115200, 63c24b8a3d6c3a4c2fd47c48860abff9
0,        126,        126,        1,   115200, b407ddc89c538d7b6fb70e48493f872c
0,        127,        127,        1,   115200, 5de69fb9e1cd425cd3931116803f5391
0,        128,        128,        1,   115200, 07fc7a5cb360edae97db999c2a8d2716
0,        129,        129,        1,   115200, 602a17c58cac811e6e71e33448931ce5
0,        130,        130,        1,   115200, 44087725484198c8e846d112583e574b
0,        131,        131,        1,   115200, 0d81da0d23d196ff972894878bd17b73
0,        132,        132,        1,   115200, b3cd65f1bd2274895e54da99bb4c4f07
0,        133,        133,        1,   115200, ae8ca35672d8352af49f37f5174c8fbd
0,        134,        134,        1,   115200, 9eea1ff900cf680e8208cd5d07a4d284
0,        135,        135,        1,   115200, 5a47f272dfda3fe61955875f761a71f2
0,        136,        136,        1,   115200, 544558333008db01451c886ac0b62c47
0,        137,        137,        1,   115200, 5f8e4f3b11d7f5a28ff5cd9f3a6853bb
0,        138,        138,        1,   115200, e9bc3da7060457f2d52a5bf6fe3bb515
0,        139,        139,        1,   115200, 6aea6851a092260ae6594c6d9170ea8e
0,        140,        140,        1,   115200, 38e7fa5bea809a984a5f810940ca0e49
0,        141,        141,        1,   115200, 9e8a23ac9067a1acf8472d7aa3b9811e
0,        142,        142,        1,   115200, 6f25f5873afd5c341ca6b3eb284be809
0,        143,        143,        1,   115200, 40c3240e6cde94aae793a52cb46487da
0,        144,        144,        1,   115200, b7f1f13842fbf0c6e085280eb89b956f
0,        145,        145,        1,   115200, 1f059372d8bf4dadf78d8e215bbf9786
0,        146,        146,        1,   115200, 50c1d6b76930e765bff5ecbaaae686fe
0,        147,        147,        1,   115200, 5bd8cb05ebc034192e08ca8ce18a7964
0,        148,        148,        1,   115200, ffc0c20b07e26857dc4f2c079a2ad675
0,        149,        149,        1,   115200, 5dafb6ac0953c254182dba124e213c07
0,        150,        150,        1,   115200, c774ed25712a38603fe2e224802768cb
0,        151,        151,        1,   115200, de549cc803a6138d483be15b28ef2286
0,        152,        152,        1,   115200, c963d9bc79c1dd2a47f7f8424c56239e
0,        153,        153,        1,   115200, 9df993e0bef1bedbce1a6b596f2c64f4
0,        154,        154,        1,   115200, 875792bde0f45358009b506840be68e1
0,        155,        155,        1,   115200, 7f8c57083d2df08db6287cb025260788
0,        156,        156,        1,   115200, 47eb13bc0942b5cafeea324fc5bf5cd5
0,        157,        157,        1,   115200, d89129c7528ff7372f23d1191c75e336
0,        158,        158,        1,   115200, bdd14e38b00075d8da485d1517dbbd65
0,        159,        159,        1,   115200, 0e8e21a50a5dd1ac6fc881ad38ec38bd
0,        160,        160,        1,   115200, a0fce98c23a053b4073715c554b9dc44
0,        161,        161,        1,   115200, 18bda80360c72d04c60016682b1f6c8d
0,        162,        162,        1,   115200, 306d7556c18dcf58c8183959d1c34c2a
0,        163,        163,        1,   115200, 7ada9d23b96ef41322497d1077b00c4d
0,        164,        164,        1,   115200, d7df0508be4bd0c3e83f346f0b9a1868
0,        165,        165,        1,   115200, 749725f425f6fd4a79269bca900d09ae
0,        166,        166,        1,   115200, ed30973158a576e2919e2fcfd00987fc
0,        167,        167,        1,   115200, 2486d8b742ccc50cf8683af7f4502aec
0,        168,        168,        1,   115200, bdfb21e4236c904aeacd7b094fcffe98
0,        169,        169,        1,   115200, df2ef3e452731053ade82506c013164e
0,        170,        170,        1,   115200, 4695bfd9aa8e5667572f8f2142c6e538
0,        171,        171,        1,   115200, 649f5315cff1d28f0183144bf4d4eea4
0,        172,        172,        1,   115200, 450e987b9d6075d32e21d030bc385833
0,        173,        173,        1,   115200, 7aec79b25dabfcc2eb2f32e7dbff85f2
0,        174,        174,        1,   115200, c9c2a96239ad556a2ee496d7c4c965c1
0,        175,        175,        1,   115200, 3a038e48aa1238b62d431823653bc45a
0,        176,        176,        1,   115200, 6d5c8de6a281dbce68998b2c38063f33
0,        177,        177,        1,   115200, 045032f57d6a50ae148f4372f5083a62
0,        178,        178,        1,   115200, 5f39172951e083e712c3b1c528e61a4f
0,        179,        179,        1,   115200, 5a49eea76b6a86e305fb207fc1479264
0,        180,        180,        1,   115200, 33ca5fb5f3e4ff3a24235da71c5730d5
0,        181,        181,        1,   115200, 81f231d20426c5cbd02a85a425f5d0b8
0,        182,        182,        1,   115200, 302d94aa9a8d3828cf74c8b2b7e7fdd5
0,        183,        183,        1,   115200, c56f4f0c32b0f2c409b64ed10216a40a
0,        184,        184,        1,   115200, 9cf7f51e1527f11c38c395bac94849d9
0,        185,        185,        1,   115200, 0f17e427d14db658131eb0ccdc2a97ef
0,        186,        186,        1,   115200, 2624dd6b8e4e95770f132d90aa6f6119
0,        187,        187,        1,   115200, 9ddabfd5f803014443c2a0686869c546
0,        188,        188,        1,   115200, 0170cb86a377d791d7cbee2af0836db7
0,        189,        189,        1,   115200, f43a7c63bcafb51ead65e2831610612c
0,        190,        190,        1,   115200, e7000913b11bdeb74ba4eca110df8470
0,        191,        191,        1,   115200, a4208c5fcd101ceb5a976838ae9a811f
0,        192,        192,        1,   115200, 8ddcb546ac632c967e879fb5101afa24
0,        193,        193,        1,   115200, 547007771194373dd246586744130f7c
0,        194,        194,        1,   115200, 3608a46fee2731341ae9f71d3a80918a
0,        195,        195,        1,   115200, 758692e173552eb3439a572c953dda0f
0,        196,        196,        1,   115200, 481f456d6c6ac2e0325acba5eeabcd26
0,        197,        197,        1,   115200, c749a3ef8641d5ec4f25c611ffad1000
0,        198,        198,        1,   115200, 93f089f7f1e78b1a4185c0b0d99875fb
0,        199,        199,        1,   115200, 1159712bb4dbaed38d2a7558335f4037
0,        200,        200,        1,   115200, e8dab85a977f525d4d9b448e4278a34b
0,        201,        201,        1,   115200, 780055af1414e7693777a18428b20a07
0,        202,        202,        1,   115200, 59252515451fd96ca3f1194d5aadc3a7
0,        203,        203,        1,   115200, 0a977d6db761c149316417988657610a
0,        204,        204,        1,   115200, ed81d3a10369c12543f9bb6822a249b6
0,        205,        205,        1,   115200, 341e844231f6b55ee3c1eb22ca1bac8e
0,        206,        206,        1,   115200, d0a180c7d15e30a71e297fda0452c153
0,        207,        207,        1,   115200, 58d6f2522ecd8e5fea34cc9f10da2a88
0,        208,        208,        1,   115200, dc8f96811577f4fd3e6624abae42f449
0,        209,        209,        1,   115200, 3624a2e95f94a0a4413e464f4bf93dcd
0,        210,        210,        1,   115200, cb0deeb5f2d570ca23e3be3ab9231fe9
0,        211,        211,        1,   115200, 5080848626a52e30eb0f64f234ca3e57
0,        212,        212,        1,   115200, a31c9fe4255318d86e7855f01588220f
0,        213,        213,        1,   115200, 6c25fd8d1f0e898f6078decc4220d47d
0,        214,        214,        1,   115200, 77e52da08ab57ba5784ce42872cc01cb
0,        215,        215,        1,   115200, b4a87059745b3b862ef7431a9630f16a
0,        216,        216,        1,   115200, 1dadc814514ef00f11010df21d8a9494
0,        217,        217,        1,   115200, 5c816a0bbc8ed8fca166aa454093cb59
0,        218,        218,        1,   115200, 10320c174423d1712d9ce812701bcaf9
0,        219,        219,        1,   115200, 279c9398657af129e072165f41e0fb8c
0,        220,        220,        1,   115200, 49d88374bc4d965d3cee3274c7cd9906
0,        221,        221,        1,   115200, 48871e22f635f50569dea1bd5ca40d5c
0,        222,        222,        1,   115200, 3b8396580f8fbd99daca4df13662f1fc
0,        223,        223,        1,   115200, 569245e1bf3cb42aa95f765a8449980f
0,        224,        224,        1,   115200, c5cab497d244447df0ab832dcc9c5968
0,        225,        225,        1,   115200, 0a98ca4f1d771c4bc0286b825d085955
0,        226,        226,        1,   115200, e4a55f175c3933f02ccf74ccf2961da2
0,        227,        227,        1,   115200, 462dca7f377d708e753ef0bbde19a090
0,        228,        228,        1,   115200, 6f1680f498b0ed6f89a834b5700cc48a
0,        229,        229,        1,   115200, 996414e2e3a4bac5868ceeb25b84e6e4
0,        230,        230,        1,   115200, 6ecb4d4b857578d32f716c56dc7e6be9
0,        231,        231,        1,   115200, e05c8e33157e20c8e8f255e937d6b6cb
0,        232,        232,        1,   115200, 6542744da147d16533e41dad287a54fc
0,        233,        233,        1,   115200, bb4b6921d2855025fbcaff4c12299d02
0,        234,        234,        1,   115200, 6bc3e605759725012f7e44f1285b0899
0,        235,        235,        1,   115200, 0be37ecb7cec0cf8a0f9bbc3c590ba98
0,        236,        236,        1,   115200, 4f1103e5923ba8dea3e99c8b75eaed3c
0,        237,        237,        1,   115200, 220a8fb0409112c4f4ee769880717fea
0,        238,        238,        1,   115200, e4c612263cfbc0f41283fd1e88e2ff52
0,        239,        239,        1,   115200, ede2bc67ad87cd78191b742dd56419b5
0,        240,        240,        1,   115200, ded6a1d0690603aea233e4d624aa60a9
0,        241,        241,        1,   115200, 59c8b53e47ebdab696547a887163b272
0,        242,        242,        1,   115200, 985f8afbc6df2d64d601d2fdc93571d7
0,        243,        243,        1,   115200, e595f0aa7b6b62094f0ad84252105f55
0,        244,        244,        1,   115200, c2fe4382a1740bcfc2f4c3573c6c3176
0,        245,        245,        1,   115200, 880d8c906a8b39a61b68eb0ada857e5f
0,        246,        246,        1,   115200, 9a3ca55d2d75e3c41a86aea2ec87ff76
0,        247,        247,        1,   115200, f800751663dbefa61c33c3ebbd5430b4
0,        248,        248,        1,   115200, d904333c0c76235c8ffdfc81dffddb46
0,        249,        249,        1,   115200, 6a633a9a7686a9a02bd252ec8bcff4fc
0,        250,        250,        1,   115200, 930d06ecc252a911a60c2d9d4f2618e6
0,        251,        251,        1,   115200, bb146a4410c34bba74883d8ae478f47b
0,        252,        252,        1,   115200, be8ab9fc95685ebec64ff1f8129afa35
0,        253,        253,        1,   115200, d1f871ea3ceb38bf2b6d00ebfc38187a
0,        254,        254,        1,   115200, ba33366e050a5f5abbf8202e0afbb9e8
0,        255,        255,        1,   115200, f706356e12cf4082337bb8f7a5a10673
0,        256,        256,        1,   115200, 6e8200d3c1cccc0f810985ea2a2030f6
0,        257,        257,        1,   115200, caafdc1810556197df6f42336edcc07b
0,        258,        258,        1,   115200, 5321ff525f5bb5063443a3dc43fc42af
0,        259,        259,        1,   115200, c24bdd3b935f7ca6e9e105b1ae8504db
